<svg width="1200" height="630" viewBox="0 0 1200 630" fill="none" xmlns="http://www.w3.org/2000/svg">
  <defs>
    <linearGradient id="bg" x1="120" y1="60" x2="1080" y2="630" gradientUnits="userSpaceOnUse">
      <stop stop-color="#EEF4FF"/>
      <stop offset="1" stop-color="#DCE7FF"/>
    </linearGradient>
    <radialGradient id="moon" cx="0" cy="0" r="1" gradientUnits="userSpaceOnUse" gradientTransform="translate(909 126) rotate(90) scale(126)">
      <stop stop-color="#FFFFFF"/>
      <stop offset="0.42" stop-color="#C4B5FD"/>
      <stop offset="1" stop-color="#243B6B"/>
    </radialGradient>
    <linearGradient id="panel" x1="262" y1="174" x2="920" y2="510" gradientUnits="userSpaceOnUse">
      <stop stop-color="white" stop-opacity="0.9"/>
      <stop offset="1" stop-color="#E8EEFD" stop-opacity="0.94"/>
    </linearGradient>
  </defs>
  <rect width="1200" height="630" rx="36" fill="url(#bg)"/>
  <circle cx="909" cy="126" r="126" fill="url(#moon)"/>
  <circle cx="909" cy="126" r="170" fill="#67E8F9" fill-opacity="0.12"/>
  <path d="M101 141C177 85 292 71 402 87C526 105 598 168 683 204C760 236 856 258 978 239" stroke="#A5B4FC" stroke-width="10" stroke-linecap="round"/>
  <rect x="120" y="140" width="960" height="350" rx="32" fill="url(#panel)" stroke="#D6E0F6"/>
  <text x="180" y="230" fill="#243B6B" font-family="Arial, sans-serif" font-size="28" font-weight="700" letter-spacing="7">PRIVATE MOOD STUDIO</text>
  <text x="180" y="330" fill="#1E293B" font-family="Arial, sans-serif" font-size="84" font-weight="700">mood-log</text>
  <text x="180" y="396" fill="#475569" font-family="Arial, sans-serif" font-size="34">Log a mood score from one to five on Base.</text>
  <rect x="182" y="430" width="176" height="24" rx="12" fill="#243B6B"/>
  <rect x="378" y="430" width="132" height="24" rx="12" fill="#A5B4FC"/>
  <rect x="530" y="430" width="154" height="24" rx="12" fill="#67E8F9"/>
  <circle cx="900" cy="356" r="84" fill="#243B6B"/>
  <text x="870" y="382" fill="white" font-family="Arial, sans-serif" font-size="72" font-weight="700">4</text>
</svg>
